<svg xmlns="http://www.w3.org/2000/svg" version="1.1" xmlns:xlink="http://www.w3.org/1999/xlink" width="1000" height="1000"><style>
    #light-icon {
      display: inline;
    }
    #dark-icon {
      display: none;
    }

    @media (prefers-color-scheme: dark) {
      #light-icon {
        display: none;
      }
      #dark-icon {
        display: inline;
      }
    }
  </style><g id="light-icon"><svg xmlns="http://www.w3.org/2000/svg" version="1.1" xmlns:xlink="http://www.w3.org/1999/xlink" width="1000" height="1000"><g clip-path="url(#SvgjsClipPath1208)"><rect width="1000" height="1000" fill="#ffffff"></rect><g transform="matrix(5,0,0,5,0,0)"><svg xmlns="http://www.w3.org/2000/svg" version="1.1" xmlns:xlink="http://www.w3.org/1999/xlink" width="200" height="200"><svg xmlns="http://www.w3.org/2000/svg" version="1.1" xmlns:xlink="http://www.w3.org/1999/xlink" viewBox="0 0 200 200"><rect width="200" height="200" fill="url('#gradient')"></rect><defs><linearGradient id="gradient" gradientTransform="rotate(312 0.5 0.5)"><stop offset="0%" stop-color="#f9c3bf"></stop><stop offset="100%" stop-color="#6eba95"></stop></linearGradient><clipPath id="SvgjsClipPath1208"><rect width="1000" height="1000" x="0" y="0" rx="300" ry="300"></rect></clipPath></defs><g><g fill="#2c313e" transform="matrix(6.18644186863365,0,0,6.18644186863365,11.84027569385465,146.05934966478927)" stroke="#73515f" stroke-width="0.1"><path d="M12.24-14.22L12.24-11.57L7.97-11.57L7.97 0L4.54 0L4.54-11.57L0.35-11.57L0.35-14.22L12.24-14.22ZM17.00-10.57L17.00 0L13.70 0L13.70-10.57L17.00-10.57ZM13.51-13.29L13.51-13.29Q13.51-13.99 14.01-14.44Q14.52-14.89 15.33-14.89Q16.14-14.89 16.65-14.44Q17.16-13.99 17.16-13.29Q17.16-12.59 16.65-12.14Q16.14-11.69 15.33-11.69Q14.52-11.69 14.01-12.14Q13.51-12.59 13.51-13.29ZM22.50-10.57L22.50 0L19.20 0L19.20-10.57L22.50-10.57ZM19.00-13.29L19.00-13.29Q19.00-13.99 19.51-14.44Q20.02-14.89 20.83-14.89Q21.64-14.89 22.15-14.44Q22.66-13.99 22.66-13.29Q22.66-12.59 22.15-12.14Q21.64-11.69 20.83-11.69Q20.02-11.69 19.51-12.14Q19.00-12.59 19.00-13.29ZM28.00-10.57L28.00 0L24.70 0L24.70-10.57L28.00-10.57ZM24.50-13.29L24.50-13.29Q24.50-13.99 25.01-14.44Q25.52-14.89 26.33-14.89Q27.14-14.89 27.65-14.44Q28.15-13.99 28.15-13.29Q28.15-12.59 27.65-12.14Q27.14-11.69 26.33-11.69Q25.52-11.69 25.01-12.14Q24.50-12.59 24.50-13.29Z"></path></g></g></svg></svg></g></g></svg></g><g id="dark-icon"><svg xmlns="http://www.w3.org/2000/svg" version="1.1" xmlns:xlink="http://www.w3.org/1999/xlink" width="1000" height="1000"><g><g transform="matrix(5,0,0,5,0,0)" style="filter: invert(100%)"><svg xmlns="http://www.w3.org/2000/svg" version="1.1" xmlns:xlink="http://www.w3.org/1999/xlink" width="200" height="200"><svg xmlns="http://www.w3.org/2000/svg" version="1.1" xmlns:xlink="http://www.w3.org/1999/xlink" viewBox="0 0 200 200"><rect width="200" height="200" fill="url('#gradient')"></rect><defs><linearGradient id="gradient" gradientTransform="rotate(312 0.5 0.5)"><stop offset="0%" stop-color="#f9c3bf"></stop><stop offset="100%" stop-color="#6eba95"></stop></linearGradient></defs><g><g fill="#2c313e" transform="matrix(6.18644186863365,0,0,6.18644186863365,11.84027569385465,146.05934966478927)" stroke="#73515f" stroke-width="0.1"><path d="M12.24-14.22L12.24-11.57L7.97-11.57L7.97 0L4.54 0L4.54-11.57L0.35-11.57L0.35-14.22L12.24-14.22ZM17.00-10.57L17.00 0L13.70 0L13.70-10.57L17.00-10.57ZM13.51-13.29L13.51-13.29Q13.51-13.99 14.01-14.44Q14.52-14.89 15.33-14.89Q16.14-14.89 16.65-14.44Q17.16-13.99 17.16-13.29Q17.16-12.59 16.65-12.14Q16.14-11.69 15.33-11.69Q14.52-11.69 14.01-12.14Q13.51-12.59 13.51-13.29ZM22.50-10.57L22.50 0L19.20 0L19.20-10.57L22.50-10.57ZM19.00-13.29L19.00-13.29Q19.00-13.99 19.51-14.44Q20.02-14.89 20.83-14.89Q21.64-14.89 22.15-14.44Q22.66-13.99 22.66-13.29Q22.66-12.59 22.15-12.14Q21.64-11.69 20.83-11.69Q20.02-11.69 19.51-12.14Q19.00-12.59 19.00-13.29ZM28.00-10.57L28.00 0L24.70 0L24.70-10.57L28.00-10.57ZM24.50-13.29L24.50-13.29Q24.50-13.99 25.01-14.44Q25.52-14.89 26.33-14.89Q27.14-14.89 27.65-14.44Q28.15-13.99 28.15-13.29Q28.15-12.59 27.65-12.14Q27.14-11.69 26.33-11.69Q25.52-11.69 25.01-12.14Q24.50-12.59 24.50-13.29Z"></path></g></g></svg></svg></g></g></svg></g></svg>